<svg width="260" height="263" viewBox="0 0 260 263" fill="none" xmlns="http://www.w3.org/2000/svg">
<ellipse cx="130" cy="131.008" rx="130" ry="131.008" fill="#019577"/>
<path fill-rule="evenodd" clip-rule="evenodd" d="M68 212.5V62C78.6667 58.3333 108 52.1 140 56.5C180 62 211.5 72 211.5 116C211.5 160 175 176 140 177C112 177.8 97.6667 177.333 94 177V212.5H68ZM94 82.5V153C95.0924 153 97.0129 153.195 99.655 153.463C105.478 154.054 114.806 155 126.5 155C158 155 172.5 146.5 180.5 133.5C188.5 120.5 188 91.5 158 82.5C134 75.3 105.333 79.5 94 82.5Z" fill="white"/>
</svg>
